<svg width="153" height="54" viewBox="0 0 153 54" fill="none" xmlns="http://www.w3.org/2000/svg">
<path d="M119.018 7.57687L114.362 22.9691H118.112L118.888 19.6076H123.414L124.19 22.9691H128.07L123.544 7.57687H119.018ZM119.535 17.0219L121.216 10.1698L122.897 17.0219H119.535ZM140.6 12.2383C140.6 9.0062 138.401 7.58406 134.27 7.58406H129.227V22.9762H132.848V17.0219H134.27L137.374 22.9691H141.512L137.632 16.3755C139.694 15.4705 140.6 14.3069 140.6 12.2383ZM134.392 14.5655H132.84V10.1698H134.134C135.944 10.1698 136.849 10.8162 136.849 12.2383C136.849 13.9191 135.944 14.5655 134.392 14.5655ZM153 7.57687L152.612 10.4212H148.862V22.9691H145.241V10.4283H141.232V7.58406H153V7.57687Z" fill="#2D2D2D"/>
<path d="M4.41117 34.0014C4.43272 34.4396 3.81486 35.0285 3.17544 35.1794C2.6869 35.323 2.28457 35.1794 2.22709 34.8849C2.22709 34.8849 -1.75309 30.7621 0.933895 18.1136C1.14943 17.381 2.06185 16.792 2.95272 16.792C3.8436 16.792 4.45427 17.2302 4.23874 17.97C4.23874 17.97 1.36496 27.2427 4.54049 33.5705C4.45427 33.8578 4.45427 33.8578 4.41117 34.0014ZM3.74301 15.6069C4.77757 15.6069 5.92709 14.7235 6.23602 13.6964C6.53776 12.6693 5.90553 11.7858 4.87097 11.7858C3.83641 11.7858 2.73001 12.5184 2.42108 13.5527C2.07622 14.7307 2.70127 15.6069 3.74301 15.6069ZM33.2926 26.0575C28.6156 38.4187 16.2511 38.1242 16.2511 38.1242C16.2511 38.1242 6.14262 38.7132 5.51039 30.7693C5.51039 30.7693 5.1799 28.8587 7.47893 27.0918C9.77795 25.3249 15.3243 22.0856 19.9224 16.0522C19.9224 16.0522 13.9593 17.6683 6.1067 23.7017C5.53194 24.1398 5.12961 23.9961 5.11524 23.558C5.35951 21.2021 6.83951 15.1688 10.8197 8.69732C16.7038 -0.726178 23.1626 0.0136241 23.1626 0.0136241C23.1626 0.0136241 32.567 0.308107 24.0103 13.2582C24.1612 13.2582 38.0128 13.5527 33.2926 26.0575ZM21.8909 13.4019C21.8909 13.4019 28.2635 3.83474 21.6538 4.12922C13.557 4.42371 8.19019 19.1407 8.19019 19.1407C15.4896 13.9909 21.8909 13.4019 21.8909 13.4019ZM22.5734 15.6069C17.8102 22.2292 12.0482 25.1741 9.13135 27.5228C7.40708 28.8444 7.90999 30.1731 7.90999 30.1731C8.98048 34.5904 15.4249 34.8849 15.4249 34.8849C15.4249 34.8849 25.44 35.6247 29.1185 26.6465C33.7596 15.9014 22.5734 15.6069 22.5734 15.6069ZM145.025 31.3582C143.459 31.6527 140.808 32.0909 139.378 33.4196C139.378 33.4196 124.391 24.8868 104.397 34.8921L104.311 35.1865C104.009 36.2136 103.751 37.0971 103.578 37.6861C102.493 41.3635 98.4197 52.6976 93.5917 52.9921C88.7638 53.2866 89.044 48.2803 91.0197 44.6029C91.7094 43.2813 93.1606 41.3635 95.201 39.453C95.201 39.453 95.4381 39.1585 96.056 38.5695C97.4857 37.2479 99.1668 36.07 101.143 34.8921C101.337 34.7484 101.674 34.5976 101.868 34.4539C101.911 34.3103 102.795 31.8036 103.592 29.5985C103.592 29.5985 101.171 34.3103 98.2041 34.3103C95.977 34.3103 95.2944 32.1052 95.2872 29.5985C93.7498 31.8036 90.8401 35.6319 87.5783 35.6319C84.3166 35.6319 83.1886 33.4268 83.2461 30.1875C81.6655 32.5434 78.9929 36.07 76.622 36.07C73.0226 36.2136 74.3087 30.3311 74.3087 30.3311C74.3087 30.3311 71.4133 35.6319 67.6056 35.481C65.5293 35.481 65.0982 33.4196 65.1988 31.0638C63.7475 32.9743 61.0174 36.2136 58.7902 36.2136C54.6376 36.2136 55.7512 30.9129 55.7512 30.9129C55.7512 30.9129 53.3516 35.0357 49.4936 35.0357C47.5681 35.0357 46.9575 33.5633 46.9934 31.9472C45.3913 33.8578 42.812 36.07 39.852 36.07C34.8086 36.07 33.4866 31.5091 34.0757 27.9753C34.8157 24.4415 38.0056 19.1479 43.3006 19.2916C47.9992 19.4352 47.0509 26.2084 37.862 28.7079C37.862 28.7079 36.9854 33.7141 40.4986 33.8578C42.6827 34.0014 44.7015 32.6798 47.1083 30.0295C47.2664 29.0024 47.525 28.1189 47.8843 27.3791C48.6817 25.1741 52.5613 18.5518 59.0992 18.9899C59.0992 18.9899 63.3596 19.1336 61.8077 23.4072C61.8077 23.4072 61.1396 25.1741 59.2141 25.1741C57.4324 25.1741 58 23.2635 58.0431 23.1127C58.0431 23.1127 59.2716 22.969 59.6811 22.0856C60.0906 21.2021 60.0116 20.4695 58.8693 20.3187C56.7283 20.0242 53.093 22.8182 51.5771 27.9681C50.212 33.118 52.784 31.94 52.784 31.94C52.784 31.94 53.912 31.6455 56.3619 28.8515C56.3619 28.8515 56.8792 27.0846 56.9654 26.7901C57.0516 26.4957 57.4755 26.0575 58.625 26.2012C59.7673 26.3448 60.0834 26.7902 59.9541 27.2283C59.7817 27.8173 57.497 33.5561 59.444 33.9942C61.2832 34.2887 64.0636 30.9057 65.4071 28.8444C65.6514 27.5228 65.8454 26.3448 66.0178 25.7559C66.4776 23.6945 67.3254 20.3115 67.7061 20.017C68.0869 19.7225 68.324 19.428 69.3155 19.5789C70.3069 19.7225 71.9593 20.1678 71.5067 21.1949C71.0541 22.2221 66.5638 32.9671 68.6545 33.4053C70.4937 33.6998 73.6118 30.1659 74.4021 28.988C74.4021 28.988 74.9984 25.4542 75.8964 23.4C76.8017 21.3386 77.2686 20.7496 78.1164 20.9005C78.9642 21.0441 80.3364 21.9276 80.5448 22.2221C80.7962 22.3657 81.1123 22.811 80.1712 23.989C79.424 25.0161 78.2601 27.9609 77.4411 30.7549C76.622 33.5489 76.9956 34.2887 77.5919 34.2887C78.1883 34.2887 79.115 34.1451 83.4329 28.5499C83.591 27.5228 83.7849 26.3448 84.1298 25.1669C85.1284 21.7839 86.163 18.2501 87.1329 15.4561C86.0049 15.7506 85.1787 16.0451 84.0148 16.4832C82.5061 17.0722 83.0881 15.5997 84.5321 14.7163C85.2578 14.2782 86.4216 13.8328 87.7364 13.3947C88.0812 12.2168 88.383 11.1897 88.5123 10.7443C89.0727 8.83379 88.6991 8.09399 90.9622 7.95034C93.2325 7.80668 93.9653 8.83379 93.1678 11.0388C93.1247 11.1825 93.0385 11.477 92.7583 11.9223C95.3878 11.0388 97.6653 9.86089 98.003 9.71724C98.3406 9.57359 99.174 9.27911 98.0748 11.4841C96.9828 13.6892 95.5602 13.9837 93.4408 14.1345C92.8445 14.1345 92.2123 14.2782 91.7669 14.2782C89.1661 20.606 84.6758 33.8506 88.2752 33.6998C90.797 33.6998 94.188 29.7278 95.2226 27.2283C95.3303 26.3448 95.4453 25.4614 95.6608 24.7288C96.2715 21.6403 96.3649 20.3115 96.3505 19.8734C96.329 19.4352 96.5086 18.8463 97.8377 18.8463C99.174 18.8463 100.97 19.2844 100.553 21.2021C100.137 23.1127 96.6523 31.9472 98.7861 32.2417C100.482 32.5362 102.738 29.8858 104.462 26.0647C104.462 26.0647 105.202 22.5309 105.848 21.353C106.495 20.175 107.443 20.4695 107.594 20.4695C107.889 20.4695 109.879 20.764 109.196 22.0856C108.643 22.969 106.782 28.2626 105.338 32.6798C114.01 28.4134 127.847 24.7359 146.175 30.4748C146.031 30.4748 146.599 31.0638 145.025 31.3582ZM37.8404 27.2355C37.8404 27.2355 40.0245 26.352 41.6482 24.8796C43.6526 23.1127 44.2561 21.0513 43.3509 20.6132C42.6971 20.3187 41.2315 20.7568 39.8233 22.5237C38.5588 24.2906 37.8404 27.2355 37.8404 27.2355ZM101.013 36.8026C101.013 36.8026 95.1867 40.4801 93.5055 45.1918C91.9537 49.4583 92.8517 50.9307 93.8504 51.0743C94.8418 51.218 96.4008 49.4583 98.1898 44.8973C99.9787 40.3292 101.013 36.8026 101.013 36.8026Z" fill="#775DAA"/>
</svg>
